<?xml version="1.0" encoding="utf-8"?>
<!-- Generator: Adobe Illustrator 24.1.1, SVG Export Plug-In . SVG Version: 6.00 Build 0)  -->
<svg version="1.1" id="Layer_1" xmlns="http://www.w3.org/2000/svg" xmlns:xlink="http://www.w3.org/1999/xlink" x="0px" y="0px"
	 viewBox="0 0 245.6 169.4" style="enable-background:new 0 0 245.6 169.4;" xml:space="preserve">
<style type="text/css">
	.st0{fill:#0064A7;}
	.st1{fill:#FFFFFF;}
	.st2{fill:none;}
</style>
<g>
	<path class="st0" d="M132.9,98.2c26.8,0.1,51.3-21.9,51.3-48.7c0-29.3-24.5-49.5-51.3-49.5h-23.1C82.6,0,60.3,20.2,60.3,49.5
		c0,26.8,22.4,48.8,49.5,48.7H132.9z"/>
	<path class="st1" d="M120.1,75.6V22.4c10.7,4.1,18.3,14.4,18.3,26.6S130.8,71.5,120.1,75.6 M81.5,49c0-12.1,7.6-22.5,18.3-26.6
		v53.2C89.1,71.5,81.5,61.2,81.5,49 M109.9,4.1C85.1,4.1,65,24.2,65,49s20.1,44.9,44.9,44.9s44.9-20.1,44.9-44.9
		C154.9,24.2,134.8,4.1,109.9,4.1"/>
	<path d="M10.1,131.7c0,4,2.9,4.5,5.4,4.5c11.2,0,14.9-8.5,14.9-16.2c0-9.7-6.2-16.7-16.2-16.7c-2.1,0-3.1,0.2-4.1,0.2L10.1,131.7
		L10.1,131.7z M5,107.4c0-4.7-2.4-4.4-4.8-4.4v-1.3c2,0.1,4.1,0.1,6.1,0.1c2.2,0,5.1-0.1,9-0.1c13.4,0,20.8,9,20.8,18.2
		c0,5.1-3,18.1-21.4,18.1c-2.6,0-5.1-0.1-7.5-0.1c-2.3,0-4.6,0.1-7,0.1v-1.5c3.1-0.3,4.6-0.4,4.8-3.9V107.4z"/>
	<path d="M43.5,106.1c-1.4,0-2.5-1.2-2.5-2.6c0-1.3,1.2-2.5,2.5-2.5s2.5,1.1,2.5,2.5S44.9,106.1,43.5,106.1 M37.9,136.5h1
		c1.4,0,2.5,0,2.5-1.7v-14.1c0-2.3-0.8-2.6-2.7-3.6v-0.8c2.4-0.7,5.3-1.7,5.6-1.9c0.4-0.2,0.7-0.3,0.9-0.3c0.3,0,0.4,0.3,0.4,0.7
		v19.9c0,1.7,1.1,1.7,2.6,1.7h0.9v1.3c-1.8,0-3.6-0.1-5.4-0.1c-1.9,0-3.7,0.1-5.7,0.1L37.9,136.5L37.9,136.5z"/>
	<path d="M54,121c0-1.9-0.6-2.4-3-3.4v-1c2.2-0.7,4.4-1.4,6.8-2.5c0.2,0,0.3,0.1,0.3,0.5v3.4c3-2.1,5.5-3.9,9-3.9c4.4,0,6,3.2,6,7.3
		v13.4c0,1.7,1.1,1.7,2.6,1.7h0.9v1.3c-1.8,0-3.6-0.1-5.5-0.1s-3.7,0.1-5.6,0.1v-1.3h0.9c1.5,0,2.5,0,2.5-1.7v-13.4
		c0-3-1.8-4.4-4.8-4.4c-1.7,0-4.3,1.3-6,2.5v15.4c0,1.7,1.1,1.7,2.6,1.7h0.9v1.3c-1.8,0-3.6-0.1-5.5-0.1s-3.7,0.1-5.6,0.1v-1.4h0.9
		c1.5,0,2.5,0,2.5-1.7V121H54z"/>
	<path d="M89.7,121.8c1.3,0,1.4-0.7,1.4-1.3c0-2.6-1.6-4.8-4.5-4.8c-3.2,0-5.3,2.3-6,6.1L89.7,121.8L89.7,121.8z M80.6,123.5
		c-0.1,0.5-0.1,1.2,0,3c0.3,4.9,3.5,9,7.6,9c2.9,0,5.1-1.6,7-3.5l0.7,0.7c-2.4,3.2-5.3,5.9-9.6,5.9c-8.3,0-9.9-8-9.9-11.3
		c0-10.2,6.8-13.2,10.5-13.2c4.2,0,8.7,2.6,8.8,8.1c0,0.3,0,0.6,0,0.9l-0.5,0.3H80.6V123.5z"/>
	<path d="M96.9,136.5h1.4c1.4,0,2.5,0,2.5-1.7v-14.6c0-1.6-1.9-1.9-2.7-2.3v-0.8c3.8-1.6,5.9-3,6.3-3c0.3,0,0.5,0.2,0.5,0.7v4.7h0.1
		c1.3-2,3.5-5.3,6.6-5.3c1.3,0,3,0.9,3,2.8c0,1.4-1,2.7-2.4,2.7c-1.6,0-1.6-1.2-3.4-1.2c-0.9,0-3.8,1.2-3.8,4.3V135
		c0,1.7,1,1.7,2.5,1.7h2.9v1.3c-2.9-0.1-5-0.1-7.3-0.1c-2.1,0-4.3,0.1-6.2,0.1V136.5z"/>
	<path d="M116.8,130.6c0.7,3.4,2.8,6.3,6.5,6.3c3.1,0,4.2-1.9,4.2-3.7c0-6.1-11.3-4.2-11.3-12.5c0-2.9,2.3-6.6,8-6.6
		c1.7,0,3.9,0.5,5.9,1.5l0.4,5.3h-1.2c-0.5-3.3-2.3-5.1-5.7-5.1c-2.1,0-4,1.2-4,3.4c0,6.1,12,4.2,12,12.4c0,3.4-2.8,7.1-8.9,7.1
		c-2.1,0-4.5-0.7-6.3-1.8l-0.6-6L116.8,130.6z"/>
	<path d="M178.6,111h-1.3c-1-6.1-5.3-8.5-11.1-8.5c-6,0-14.6,4-14.6,16.5c0,10.5,7.5,18,15.5,18c5.1,0,9.4-3.5,10.4-9l1.2,0.3
		l-1.2,7.6c-2.2,1.4-8,2.8-11.5,2.8c-12.1,0-19.8-7.8-19.8-19.5c0-10.6,9.5-18.3,19.7-18.3c4.2,0,8.3,1.4,12.2,2.8L178.6,111z"/>
	<path d="M180.5,136.5h1c1.5,0,2.5,0,2.5-1.7v-28.9c0-3.4-0.8-3.5-2.8-4v-0.8c2.1-0.7,4.3-1.6,5.3-2.2c0.6-0.3,1-0.6,1.1-0.6
		c0.3,0,0.4,0.3,0.4,0.7v35.9c0,1.7,1.1,1.7,2.6,1.7h0.9v1.3c-1.8,0-3.6-0.1-5.4-0.1c-1.9,0-3.7,0.1-5.7,0.1v-1.4H180.5z"/>
	<path d="M213.8,135c0,0.9,0.6,1,1.5,1c0.6,0,1.4,0,2.1,0v1.1c-2.2,0.2-6.5,1.3-7.5,1.6l-0.3-0.2v-4.2c-3.1,2.5-5.5,4.4-9.2,4.4
		c-2.8,0-5.7-1.8-5.7-6.2v-13.3c0-1.3-0.2-2.6-3.1-2.9v-1c1.9-0.1,6-0.4,6.7-0.4c0.6,0,0.6,0.4,0.6,1.5v13.4c0,1.6,0,6,4.5,6
		c1.8,0,4.1-1.3,6.3-3.2v-14c0-1-2.5-1.6-4.4-2.1v-0.9c4.7-0.3,7.6-0.7,8.1-0.7c0.4,0,0.4,0.4,0.4,0.9V135z"/>
	<path d="M224.1,132c0,2,1.9,5.3,5.3,5.3c5.6,0,7.9-5.5,7.9-10.1c0-5.6-4.3-10.3-8.3-10.3c-1.9,0-3.5,1.2-4.9,2.4L224.1,132
		L224.1,132z M224.1,117.8c2.1-1.8,4.9-3.7,7.7-3.7c6,0,9.7,5.2,9.7,10.9c0,6.8-5,13.6-12.4,13.6c-3.8,0-5.9-1.2-7.2-1.8l-1.6,1.2
		l-1.1-0.6c0.5-3.1,0.7-6.1,0.7-9.2v-22.3c0-3.4-0.8-3.5-2.8-4v-0.8c2.1-0.7,4.3-1.6,5.3-2.2c0.6-0.3,1-0.6,1.1-0.6
		c0.3,0,0.4,0.3,0.4,0.7v18.8H224.1z"/>
	<path d="M0.2,168h0.4c1,0,2.1-0.1,2.1-1.6v-14.8c0-1.5-1.1-1.6-2.1-1.6H0.2v-0.8c1.1,0,2.8,0.1,4.2,0.1c1.4,0,3.1-0.1,4.4-0.1v0.8
		H8.4c-1,0-2.1,0.1-2.1,1.6v14.8c0,1.5,1.1,1.6,2.1,1.6h0.4v0.9c-1.4,0-3.1-0.1-4.5-0.1s-3.1,0.1-4.2,0.1V168H0.2z"/>
	<path d="M8.7,168.7v-0.6H8.4c-1,0-2.2-0.2-2.2-1.7v-14.8c0-1.6,1.2-1.7,2.2-1.7h0.3v-0.6c-1.3,0-2.9,0.1-4.3,0.1
		c-1.3,0-3-0.1-4.1-0.1v0.6h0.3c1,0,2.2,0.2,2.2,1.7v14.8c0,1.6-1.2,1.7-2.2,1.7H0.3v0.6c1.1,0,2.7-0.1,4-0.1
		C5.7,168.6,7.4,168.7,8.7,168.7 M8.8,169c-1.4,0-3.1-0.1-4.5-0.1s-3,0.1-4.2,0.1H0v-0.1v-0.8V168h0.1h0.4c1,0,2-0.1,2-1.5v-14.8
		c0-1.4-0.9-1.5-2-1.5H0v-0.1v-1h0.1c1.1,0,2.8,0.1,4.2,0.1c1.4,0,3.1-0.1,4.4-0.1h0.1v0.1v1H8.7H8.3c-1,0-2,0.1-2,1.5v14.8
		c0,1.4,0.9,1.5,2,1.5h0.5v0.1v1l0,0V169z"/>
	<path d="M28.2,163.3L28.2,163.3l0.1-10.6c0-2.3-1.6-2.7-2.5-2.7h-0.6v-0.8c1.3,0,2.6,0.1,4,0.1c1.2,0,2.3-0.1,3.5-0.1v0.8h-0.4
		c-1.2,0-2.5,0.2-2.5,3.6v12.9c0,1,0,2,0.2,2.8h-1.1l-14.5-16.2v11.6c0,2.5,0.5,3.3,2.7,3.3h0.5v0.9c-1.2,0-2.4-0.1-3.6-0.1
		c-1.3,0-2.6,0.1-3.8,0.1V168h0.4c1.9,0,2.5-1.3,2.5-3.6v-11.9c0-1.6-1.3-2.5-2.6-2.5H9.9v-0.8c1.1,0,2.2,0.1,3.2,0.1
		c0.8,0,1.7-0.1,2.5-0.1L28.2,163.3z"/>
	<path d="M28.2,163.2L28.2,163.2L28.2,163.2L28.2,163.2z M28.2,163.3L28.2,163.3L28.2,163.3z M28.8,169.2h0.9
		c-0.1-0.8-0.1-1.8-0.1-2.7v-12.9c0-3.4,1.4-3.7,2.6-3.7h0.3v-0.6c-1.1,0-2.2,0.1-3.4,0.1c-1.3,0-2.6-0.1-3.8-0.1v0.6h0.5
		c0.9,0,2.6,0.4,2.6,2.8v10.7l-0.1,0.1l-0.1,0.1l-12.6-14.2c-0.8,0-1.7,0.1-2.5,0.1c-1,0-2.1-0.1-3.1-0.1v0.6h0.3
		c1.3,0,2.7,1,2.7,2.7v11.9c0,2.3-0.6,3.7-2.7,3.7H10v0.6c1.2,0,2.5-0.1,3.7-0.1s2.4,0.1,3.5,0.1v-0.6h-0.3c-2.2,0-2.8-1-2.8-3.4
		v-12L28.8,169.2z M29.9,169.4h-1.2l-14.3-16v11.3c0,2.5,0.4,3.2,2.5,3.2h0.6v0.1v1h-0.1c-1.2,0-2.4-0.1-3.6-0.1
		c-1.3,0-2.6,0.1-3.8,0.1H9.9v-0.1v-1H10h0.4c1.9,0,2.4-1.2,2.4-3.5v-11.9c0-1.5-1.2-2.4-2.4-2.4H9.9V150v-1H10
		c1.1,0,2.2,0.1,3.2,0.1c0.8,0,1.7-0.1,2.6-0.1l12.4,14v-10.4c0-2.2-1.5-2.5-2.3-2.5h-0.7V150v-1h0.1c1.3,0,2.6,0.1,4,0.1
		c1.1,0,2.3-0.1,3.5-0.1h0.1v0.1v1h-0.1h-0.4c-1.2,0-2.4,0.1-2.4,3.5v12.9c0,1,0,2,0.2,2.8v0.1H29.9z"/>
	<path d="M36.9,150.6c-2.1,0-2.2,0.5-2.6,2.6h-0.8c0.1-0.8,0.3-1.6,0.3-2.4c0.1-0.8,0.2-1.6,0.2-2.4h0.7c0.2,0.8,0.9,0.8,1.7,0.8H51
		c0.8,0,1.5,0,1.5-0.9l0.7,0.1c-0.1,0.8-0.2,1.5-0.3,2.3c-0.1,0.8-0.1,1.5-0.1,2.3l-0.8,0.3c-0.1-1-0.2-2.7-2.1-2.7h-4.6v15
		c0,2.2,1,2.4,2.3,2.4h0.5v0.9c-1.1,0-3.1-0.1-4.6-0.1c-1.7,0-3.7,0.1-4.8,0.1V168h0.5c1.6,0,2.3-0.1,2.3-2.4v-15.1h-4.6V150.6z"/>
	<path d="M48,169c-1.1,0-3.1-0.1-4.6-0.1c-1.7,0-3.7,0.1-4.8,0.1h-0.1v-0.1v-1h0.1h0.5c1.6,0,2.2-0.1,2.2-2.2v-15h-4.4v-0.1v-0.1
		h4.8v15.2c0,2.3-0.9,2.5-2.5,2.5h-0.4v0.6c1.1,0,3-0.1,4.7-0.1c1.5,0,3.4,0.1,4.5,0.1v-0.6h-0.4c-1.4,0-2.5-0.3-2.5-2.6v-15.2h4.8
		c1.9,0,2.1,1.6,2.2,2.7l0.6-0.2c0-0.7,0-1.5,0.1-2.2s0.2-1.4,0.3-2.2l-0.4-0.1c-0.1,0.8-0.9,0.9-1.6,0.9H36.5h-0.1
		c-0.7,0-1.4,0-1.6-0.8h-0.5c0,0.8-0.1,1.5-0.2,2.3s-0.2,1.5-0.3,2.3h0.6c0.4-2,0.6-2.6,2.7-2.6v0.1v0.1c-2.1,0-2,0.4-2.5,2.5v0.1
		h-0.1h-1v-0.1c0.1-0.8,0.3-1.6,0.3-2.4c0.1-0.8,0.2-1.6,0.2-2.4v-0.1h0.1h0.8v0.1c0.2,0.7,0.7,0.7,1.4,0.7h0.1H51
		c0.8,0,1.4,0,1.4-0.8v-0.1h0.1l0.8,0.1v0.1c-0.1,0.8-0.2,1.5-0.3,2.3c-0.1,0.8-0.1,1.5-0.1,2.3v0.1h-0.1l-1,0.4v-0.2
		c-0.1-1.1-0.2-2.6-2-2.6h-4.5v14.9c0,2.1,0.9,2.3,2.2,2.3h0.7v0.1v1L48,169L48,169z"/>
	<path d="M53.9,168h0.4c1,0,2.1-0.1,2.1-1.6v-14.8c0-1.5-1.1-1.6-2.1-1.6h-0.4v-0.8c1.7,0,4.7,0.1,7,0.1c2.4,0,5.3-0.1,7.2-0.1
		c0,1.2,0,3.1,0.1,4.3l-0.9,0.2c-0.1-1.8-0.5-3.3-3.4-3.3H60v7.4h3.4c1.7,0,2.1-1,2.2-2.5h0.8c-0.1,1.1-0.1,2.2-0.1,3.3
		c0,1.1,0,2.1,0.1,3.2l-0.8,0.2c-0.2-1.7-0.3-2.8-2.2-2.8H60v6.6c0,1.8,1.6,1.8,3.4,1.8c3.4,0,4.9-0.2,5.7-3.4l0.8,0.2
		c-0.4,1.5-0.7,3-1,4.5c-1.8,0-5.1-0.1-7.6-0.1s-5.9,0.1-7.5,0.1L53.9,168L53.9,168z"/>
	<path d="M68.9,168.7c0.2-1.4,0.6-2.9,0.9-4.3l-0.6-0.1c-0.8,3.2-2.5,3.4-5.8,3.4c-1.8,0-3.6,0-3.6-2V159h3.5c2,0,2.2,1.2,2.3,2.8
		l0.6-0.1c-0.1-1-0.1-2.1-0.1-3.1c0-1.1,0-2.1,0.1-3.2h-0.6c-0.2,1.5-0.6,2.5-2.3,2.5h-3.4v-7.6h4c2.9,0,3.4,1.5,3.5,3.3l0.6-0.2
		c0-0.8-0.1-1.8-0.1-2.8c0-0.5,0-0.9,0-1.3c-1.9,0-4.8,0.1-7.1,0.1c-2.3,0-5.2-0.1-6.9-0.1v0.6h0.3c1,0,2.2,0.2,2.2,1.7v14.8
		c0,1.6-1.2,1.7-2.2,1.7h-0.3v0.6c1.6,0,4.9-0.1,7.4-0.1C63.9,168.6,67.1,168.7,68.9,168.7 M69,169c-1.8,0-5.1-0.1-7.6-0.1
		s-5.9,0.1-7.5,0.1h-0.1v-0.1V168v-0.1h0.1h0.4c1,0,2-0.1,2-1.5v-14.8c0-1.4-0.9-1.5-2-1.5h-0.5V150v-1h0.1c1.7,0,4.7,0.1,7,0.1
		c2.4,0,5.3-0.1,7.2-0.1h0.1v0.1c0,0.4,0,0.9,0,1.5c0,1,0,2,0.1,2.8v0.1h-0.1l-1,0.3v-0.1c-0.2-1.8-0.4-3.2-3.3-3.2h-3.8v7.1h3.2
		c1.6,0,1.9-0.8,2.1-2.4v-0.1h0.1h1v0.1c-0.1,1.1-0.1,2.2-0.1,3.3c0,1.1,0,2.1,0.1,3.2v0.1h-0.1l-1,0.2v-0.1
		c-0.2-1.7-0.2-2.7-2.1-2.7H60v6.5c0,1.7,1.5,1.7,3.3,1.7c3.4,0,4.8-0.2,5.6-3.4v-0.1H69l0.9,0.2v0.1c-0.4,1.5-0.7,3-1,4.5L69,169
		L69,169z"/>
	<path d="M77.4,158.7h1.4c2.8,0,4.4-1.1,4.4-4.4c0-2.5-1.6-4.1-4.1-4.1c-0.8,0-1.2,0.1-1.6,0.1L77.4,158.7L77.4,158.7z M73.8,152.1
		c0-2.1-1.1-2.1-2-2.1h-0.5v-0.8c0.9,0,2.7,0.1,4.4,0.1c1.7,0,3-0.1,4.5-0.1c3.6,0,6.7,1,6.7,5c0,2.5-1.7,4.1-3.9,5l4.8,7.2
		c0.8,1.2,1.4,1.5,2.7,1.7v0.9c-0.9,0-1.8-0.1-2.8-0.1c-0.9,0-1.8,0.1-2.7,0.1c-2.2-2.9-4-5.9-5.9-9.2h-1.9v6c0,2.2,1,2.3,2.3,2.3
		H80v0.9c-1.6,0-3.2-0.1-4.9-0.1c-1.4,0-2.7,0.1-4.1,0.1v-0.9h0.5c1,0,2-0.5,2-1.5v-14.5H73.8z"/>
	<path d="M78.8,158.6c2.8,0,4.2-1,4.2-4.3c0-2.5-1.5-4-4-4c-0.8,0-1.1,0.1-1.5,0.1v8.2L78.8,158.6L78.8,158.6z M77.4,158.8h-0.1
		v-8.6h0.1c0.4,0,0.8-0.1,1.6-0.1c2.6,0,4.2,1.7,4.3,4.2c0,3.4-1.6,4.5-4.5,4.5H77.4z M77.4,159.6h1.9v0.1c1.8,3.2,3.7,6.3,5.8,9.1
		c0.9,0,1.8-0.1,2.6-0.1c0.9,0,1.8,0.1,2.6,0.1v-0.6c-1.3-0.2-1.9-0.6-2.7-1.7l-4.9-7.4l0.1-0.1c2.2-0.9,3.8-2.4,3.8-4.9
		c0-3.9-3-4.8-6.6-4.8c-1.5,0-2.8,0.1-4.5,0.1s-3.3-0.1-4.3-0.1v0.6h0.4c0.9,0,2.1,0.1,2.1,2.3v14.3c0,1.1-1.1,1.6-2.1,1.7h-0.4v0.6
		c1.4,0,2.6-0.1,4-0.1c1.6,0,3.2,0.1,4.7,0.1v-0.6h-0.4c-1.3,0-2.4-0.2-2.4-2.4v-6.2H77.4z M90.6,169c-0.9,0-1.8-0.1-2.8-0.1
		c-0.9,0-1.8,0.1-2.7,0.1c-2.2-2.8-4-5.9-5.8-9.1h-1.7v5.9c0,2.1,0.9,2.1,2.2,2.1h0.6v0.1v1h-0.1c-1.6,0-3.3-0.1-4.9-0.1
		c-1.3,0-2.7,0.1-4.1,0.1h-0.1v-0.1v-1h0.1h0.5c1,0,1.9-0.4,1.9-1.4v-14.3c0-2-1-2-1.9-2h-0.6v-0.1v-1h0.1c0.9,0,2.7,0.1,4.4,0.1
		c1.7,0,3-0.1,4.5-0.1c3.6,0,6.8,1,6.8,5.1c0,2.5-1.7,4.1-3.9,5l4.7,7.1c0.8,1.2,1.3,1.5,2.7,1.6h0.1v0.1L90.6,169L90.6,169
		L90.6,169z"/>
	<path d="M109.8,163.3L109.8,163.3l0.1-10.6c0-2.3-1.6-2.7-2.5-2.7h-0.6v-0.8c1.3,0,2.6,0.1,4,0.1c1.2,0,2.3-0.1,3.5-0.1v0.8h-0.4
		c-1.2,0-2.5,0.2-2.5,3.6v12.9c0,1,0,2,0.2,2.8h-1.1L96,153.1v11.6c0,2.5,0.5,3.3,2.7,3.3h0.5v0.9c-1.2,0-2.4-0.1-3.6-0.1
		c-1.3,0-2.6,0.1-3.8,0.1V168h0.4c2,0,2.5-1.3,2.5-3.6v-11.9c0-1.6-1.3-2.5-2.6-2.5h-0.4v-0.8c1.1,0,2.2,0.1,3.2,0.1
		c0.8,0,1.7-0.1,2.5-0.1L109.8,163.3z"/>
	<path d="M109.7,163.2L109.7,163.2L109.7,163.2L109.7,163.2z M109.8,163.3L109.8,163.3L109.8,163.3z M110.3,169.2h0.9
		c-0.1-0.8-0.1-1.8-0.1-2.7v-12.9c0-3.4,1.4-3.7,2.6-3.7h0.3v-0.6c-1.1,0-2.2,0.1-3.3,0.1c-1.3,0-2.6-0.1-3.8-0.1v0.6h0.5
		c0.9,0,2.6,0.4,2.6,2.8v10.7l-0.1,0.1l-0.1,0.1l-12.6-14.2c-0.8,0-1.7,0.1-2.5,0.1c-1,0-2.1-0.1-3.1-0.1v0.6h0.3
		c1.3,0,2.7,1,2.7,2.7v11.9c0,2.3-0.6,3.7-2.7,3.7h-0.3v0.6c1.2,0,2.5-0.1,3.7-0.1s2.4,0.1,3.5,0.1v-0.6h-0.4c-2.2,0-2.8-1-2.8-3.4
		V153L110.3,169.2z M111.4,169.4h-1.2l-14.3-16v11.3c0,2.5,0.4,3.2,2.5,3.2H99v0.1v1h-0.1c-1.2,0-2.4-0.1-3.6-0.1
		c-1.3,0-2.6,0.1-3.8,0.1h-0.1v-0.1v-1h0.1h0.4c1.9,0,2.4-1.2,2.4-3.5v-11.9c0-1.5-1.2-2.4-2.4-2.4h-0.5V150v-1h0.1
		c1.1,0,2.2,0.1,3.2,0.1c0.8,0,1.6-0.1,2.6-0.1l12.4,14v-10.4c0-2.2-1.5-2.5-2.3-2.5h-0.7V150v-1h0.1c1.3,0,2.6,0.1,4,0.1
		c1.1,0,2.3-0.1,3.5-0.1h0.1v0.1v1h-0.1h-0.4c-1.2,0-2.4,0.1-2.4,3.5v12.9c0,1,0,2,0.2,2.8v0.1H111.4z"/>
	<path d="M122.8,152.3L122.8,152.3l-2.7,8h5.3L122.8,152.3z M118.7,164.8c-0.3,1-0.6,1.7-0.6,2.2c0,0.8,1.2,1,2.1,1h0.3v0.9
		c-1.1-0.1-2.3-0.1-3.4-0.1c-1,0-2,0.1-3,0.1V168h0.2c1.1,0,2-0.6,2.5-1.8l4.5-13c0.4-1,0.9-2.5,1-3.5c0.9-0.3,2-0.9,2.6-1.2
		c0.1,0,0.1-0.1,0.2-0.1s0.1,0,0.2,0.1c0.1,0.2,0.2,0.5,0.3,0.7l5.2,14.8c0.3,1,0.7,2,1,2.9c0.3,0.8,0.9,1.1,1.9,1.1h0.2v0.9
		c-1.3-0.1-2.5-0.1-3.9-0.1s-2.8,0.1-4.2,0.1V168h0.3c0.6,0,1.8-0.1,1.8-0.8c0-0.4-0.3-1.1-0.6-2l-1.1-3.3h-6.4L118.7,164.8z"/>
	<path d="M122.7,152.3L122.7,152.3L122.7,152.3z M120.3,160.2h4.9l-2.5-7.6L120.3,160.2z M120,160.4l2.7-8.2h0.1h0.1v0.1l0,0l0,0
		v-0.1h0.1l2.7,8.2H120z M125.8,168.7c1.4,0,2.8-0.1,4.1-0.1c1.3,0,2.5,0.1,3.8,0.1v-0.6l0,0c-1,0-1.6-0.4-2-1.2
		c-0.4-0.9-0.7-1.9-1-2.9l-5.2-14.8c-0.1-0.2-0.2-0.5-0.2-0.7l0,0h-0.1c-0.1,0-0.1,0-0.2,0c-0.5,0.4-1.7,0.9-2.5,1.1
		c-0.2,1.1-0.7,2.5-1.1,3.5l-4.5,13c-0.4,1.2-1.4,1.9-2.6,1.9l0,0v0.6c1,0,1.9-0.1,2.9-0.1c1.1,0,2.2,0.1,3.3,0.1V168h-0.2
		c-0.9,0-2.2-0.1-2.2-1.1c0-0.6,0.3-1.3,0.6-2.2h0.1h-0.1l0.9-3h6.6l1.1,3.4c0.3,0.9,0.6,1.7,0.6,2.1c0,0.9-1.2,0.9-1.9,0.9h-0.2
		L125.8,168.7L125.8,168.7z M133.8,169c-1.3-0.1-2.5-0.1-3.9-0.1s-2.8,0.1-4.2,0.1h-0.1v-0.1v-1h0.1h0.3c0.7,0,1.6-0.1,1.6-0.7
		c0-0.3-0.2-1.1-0.6-2l-1.1-3.2h-6.2l-0.9,2.9c-0.3,1-0.6,1.7-0.6,2.2c0,0.7,1.1,0.9,2,0.9h0.4v0.1v1h-0.1c-1.1-0.1-2.3-0.1-3.4-0.1
		c-1,0-2,0.1-3,0.1H114V169v-1h0.1h0.2c1.1,0,1.9-0.6,2.3-1.7l4.5-13c0.4-1,0.9-2.5,1.1-3.6c0.9-0.3,2-0.9,2.6-1.2
		c0.1,0,0.2-0.1,0.3-0.1c0.1,0,0.2,0,0.3,0.2c0.1,0.2,0.2,0.5,0.3,0.7l5.2,14.8c0.3,1,0.7,2,1,2.9c0.3,0.8,0.8,1,1.8,1.1h0.3v0.1v1
		L133.8,169z"/>
	<path d="M135,150.6c-2.1,0-2.2,0.5-2.6,2.6h-0.9c0.1-0.8,0.3-1.6,0.3-2.4c0.1-0.8,0.2-1.6,0.2-2.4h0.7c0.2,0.8,0.9,0.8,1.7,0.8H149
		c0.8,0,1.5,0,1.5-0.9l0.7,0.1c-0.1,0.8-0.2,1.5-0.3,2.3c-0.1,0.8-0.1,1.5-0.1,2.3l-0.8,0.3c-0.1-1-0.2-2.7-2.1-2.7h-4.6v15
		c0,2.2,1,2.4,2.3,2.4h0.5v0.9c-1.1,0-3.1-0.1-4.6-0.1c-1.7,0-3.7,0.1-4.8,0.1V168h0.5c1.6,0,2.3-0.1,2.3-2.4v-15.1H135V150.6z"/>
	<path d="M146.1,169c-1.1,0-3.1-0.1-4.6-0.1c-1.7,0-3.7,0.1-4.8,0.1h-0.1v-0.1v-1h0.1h0.5c1.6,0,2.2-0.1,2.2-2.2v-15h-4.5v-0.1v-0.1
		h4.8v15.2c0,2.3-0.9,2.5-2.5,2.5h-0.3v0.6c1.1,0,3-0.1,4.7-0.1c1.5,0,3.4,0.1,4.5,0.1v-0.6h-0.4c-1.4,0-2.5-0.3-2.5-2.6v-15.2h4.8
		c1.9,0,2.1,1.6,2.2,2.7l0.6-0.2c0-0.7,0-1.5,0.1-2.2s0.2-1.4,0.3-2.2l-0.4-0.1c-0.1,0.8-0.9,0.9-1.6,0.9h-14.6h-0.1
		c-0.7,0-1.4,0-1.6-0.8h-0.5c0,0.8-0.1,1.5-0.2,2.3s-0.2,1.5-0.3,2.3h0.6c0.4-2,0.6-2.6,2.7-2.6v0.1v0.1c-2.1,0-2,0.4-2.5,2.5v0.1
		h-0.1h-1v-0.1c0.1-0.8,0.3-1.6,0.3-2.4c0.1-0.8,0.2-1.6,0.2-2.4v-0.1h0.1h0.8v0.1c0.2,0.7,0.7,0.7,1.4,0.7c0.1,0,0.1,0,0.1,0h14.6
		c0.8,0,1.4,0,1.4-0.8v-0.1h0.1l0.8,0.1v0.1c-0.1,0.8-0.2,1.5-0.3,2.3c-0.1,0.8-0.1,1.5-0.1,2.3v0.1h-0.1l-1,0.4v-0.2
		c-0.1-1.1-0.2-2.6-2-2.6h-4.5v14.9c0,2.1,0.9,2.3,2.2,2.3h0.7v0.1v1L146.1,169L146.1,169z"/>
	<path d="M152.2,168h0.4c1,0,2.1-0.1,2.1-1.6v-14.8c0-1.5-1.1-1.6-2.1-1.6h-0.4v-0.8c1.1,0,2.8,0.1,4.2,0.1c1.4,0,3.1-0.1,4.4-0.1
		v0.8h-0.4c-1,0-2.1,0.1-2.1,1.6v14.8c0,1.5,1.1,1.6,2.1,1.6h0.4v0.9c-1.4,0-3.1-0.1-4.5-0.1s-3,0.1-4.2,0.1V168H152.2z"/>
	<path d="M160.7,168.7v-0.6h-0.3c-1,0-2.2-0.2-2.2-1.7v-14.8c0-1.6,1.2-1.7,2.2-1.7h0.3v-0.6c-1.3,0-2.9,0.1-4.3,0.1
		c-1.3,0-3-0.1-4.1-0.1v0.6h0.3c1,0,2.2,0.2,2.2,1.7v14.8c0,1.6-1.2,1.7-2.2,1.7h-0.3v0.6c1.1,0,2.7-0.1,4-0.1
		C157.8,168.6,159.4,168.7,160.7,168.7 M160.8,169c-1.4,0-3.1-0.1-4.5-0.1s-3,0.1-4.2,0.1H152v-0.1V168v-0.1h0.1h0.4
		c1,0,2-0.1,2-1.5v-14.8c0-1.4-0.9-1.5-2-1.5H152V150v-1h0.1c1.1,0,2.8,0.1,4.2,0.1c1.4,0,3.1-0.1,4.4-0.1h0.1v0.1v1h-0.1h-0.4
		c-1,0-2,0.1-2,1.5v14.8c0,1.4,0.9,1.5,2,1.5h0.5v0.1V169L160.8,169z"/>
	<path d="M172.5,168c5.5,0,6.4-4.8,6.4-8.9s-2.2-9.1-6.9-9.1c-4.9,0-6.4,4.4-6.4,8.2C165.6,163.2,168,168,172.5,168 M172.1,148.7
		c6,0,10.8,3.7,10.8,9.7c0,6.5-4.7,10.8-10.7,10.8s-10.6-4.1-10.6-10.1C161.7,153.3,166.2,148.7,172.1,148.7"/>
	<path d="M165.5,158.1c0-3.8,1.5-8.3,6.5-8.3c4.8,0,7,5.1,7,9.3c0,4.1-1,9.1-6.6,9.1v-0.1V168c5.4,0,6.3-4.7,6.3-8.8
		c0-4.1-2.2-9-6.8-9c-4.8,0-6.3,4.3-6.3,8.1c0,5,2.3,9.8,6.8,9.8v0.1v0.1C167.8,168.1,165.5,163.2,165.5,158.1 M161.6,159.1
		c0-5.9,4.6-10.5,10.5-10.5v0.1v0.1c-5.8,0-10.3,4.5-10.3,10.3c0,6,4.5,10,10.4,10c6,0,10.5-4.3,10.6-10.7c0-5.9-4.7-9.6-10.7-9.6
		v-0.1v-0.1c6.1,0,10.9,3.8,10.9,9.9c0,6.6-4.7,10.9-10.8,10.9C166.2,169.4,161.6,165.3,161.6,159.1"/>
	<path d="M202,163.3L202,163.3l0.1-10.6c0-2.3-1.6-2.7-2.5-2.7h-0.7v-0.8c1.3,0,2.6,0.1,3.9,0.1c1.2,0,2.3-0.1,3.5-0.1v0.8h-0.4
		c-1.2,0-2.5,0.2-2.5,3.6v12.9c0,1,0,2,0.2,2.8h-1.1L188,153.1v11.6c0,2.5,0.5,3.3,2.7,3.3h0.5v0.9c-1.2,0-2.4-0.1-3.6-0.1
		c-1.3,0-2.6,0.1-3.8,0.1V168h0.4c2,0,2.5-1.3,2.5-3.6v-11.9c0-1.6-1.3-2.5-2.6-2.5h-0.4v-0.8c1.1,0,2.2,0.1,3.2,0.1
		c0.8,0,1.7-0.1,2.5-0.1L202,163.3z"/>
	<path d="M201.9,163.2L201.9,163.2L201.9,163.2L201.9,163.2z M202,163.3L202,163.3L202,163.3z M202.5,169.2h0.9
		c-0.1-0.8-0.1-1.8-0.1-2.7v-12.9c0-3.4,1.4-3.7,2.6-3.7h0.3v-0.6c-1.1,0-2.2,0.1-3.4,0.1c-1.3,0-2.5-0.1-3.8-0.1v0.6h0.5
		c0.9,0,2.6,0.4,2.6,2.8v10.7l-0.1,0.1l-0.1,0.1l-12.6-14.2c-0.8,0-1.7,0.1-2.5,0.1c-1,0-2.1-0.1-3.1-0.1v0.6h0.2
		c1.3,0,2.7,1,2.7,2.7v11.9c0,2.3-0.6,3.7-2.7,3.7h-0.3v0.6c1.2,0,2.5-0.1,3.7-0.1s2.3,0.1,3.5,0.1v-0.6h-0.4c-2.2,0-2.8-1-2.8-3.4
		v-12L202.5,169.2z M203.6,169.4h-1.2l-14.3-16v11.3c0,2.5,0.4,3.1,2.5,3.2h0.6v0.1v1h-0.1c-1.2,0-2.4-0.1-3.6-0.1
		c-1.3,0-2.6,0.1-3.8,0.1h-0.1v-0.1v-1h0.1h0.4c1.9,0,2.4-1.2,2.4-3.5v-11.9c0-1.5-1.2-2.4-2.4-2.4h-0.5V150v-1h0.1
		c1.1,0,2.2,0.1,3.3,0.1c0.8,0,1.6-0.1,2.6-0.1l12.4,14v-10.4c0-2.2-1.5-2.5-2.3-2.5H199V150v-1h0.1c1.3,0,2.6,0.1,3.9,0.1
		c1.2,0,2.3-0.1,3.5-0.1h0.1v0.1v1h-0.1h-0.6c-1.2,0-2.4,0.1-2.4,3.5v12.9c0,1,0,2,0.2,2.8v0.1H203.6z"/>
	<path d="M215,152.3L215,152.3l-2.7,8h5.3L215,152.3z M210.9,164.8c-0.3,1-0.6,1.7-0.6,2.2c0,0.8,1.2,1,2.1,1h0.3v0.9
		c-1.1-0.1-2.3-0.1-3.4-0.1c-1,0-2,0.1-3,0.1V168h0.2c1.1,0,2-0.6,2.5-1.8l4.5-13c0.4-1,0.9-2.5,1-3.5c0.9-0.3,2-0.9,2.6-1.2
		c0.1,0,0.1-0.1,0.2-0.1s0.1,0,0.2,0.1c0.1,0.2,0.2,0.5,0.3,0.7L223,164c0.3,1,0.7,2,1,2.9c0.3,0.8,0.9,1.1,1.9,1.1h0.2v0.9
		c-1.3-0.1-2.5-0.1-3.9-0.1s-2.8,0.1-4.2,0.1V168h0.3c0.6,0,1.8-0.1,1.8-0.8c0-0.4-0.3-1.1-0.6-2l-1.1-3.3H212L210.9,164.8z"/>
	<path d="M214.9,152.3L214.9,152.3L214.9,152.3z M212.5,160.2h4.9l-2.5-7.6L212.5,160.2z M212.2,160.4l2.7-8.2h0.1h0.1v0.1l0,0l0,0
		v-0.1h0.1l2.7,8.2H212.2z M217.9,168.7c1.4-0.1,2.8-0.1,4.1-0.1c1.3,0,2.5,0.1,3.8,0.1v-0.6l0,0c-1,0-1.6-0.4-2-1.2
		c-0.4-0.9-0.7-1.9-1-2.9l-5.2-14.8c-0.1-0.2-0.2-0.5-0.2-0.7l0,0h-0.1c-0.1,0-0.1,0-0.2,0c-0.6,0.3-1.7,0.9-2.5,1.1
		c-0.2,1.1-0.7,2.5-1.1,3.5l-4.5,13c-0.4,1.2-1.4,1.9-2.6,1.9l0,0v0.6c1,0,1.9-0.1,2.9-0.1c1.1,0,2.2,0.1,3.3,0.1V168h-0.2
		c-0.9,0-2.2-0.1-2.2-1.1c0-0.6,0.4-1.3,0.6-2.2h0.1h-0.1l0.9-3h6.6l1.1,3.4c0.3,0.9,0.6,1.7,0.6,2.1c0,0.9-1.2,0.9-1.9,0.9h-0.2
		V168.7z M225.9,169c-1.3,0-2.5-0.1-3.9-0.1s-2.8,0.1-4.2,0.1h-0.1v-0.1v-1h0.1h0.3c0.7,0,1.6-0.2,1.6-0.7c0-0.3-0.2-1.1-0.6-2
		L218,162h-6.1l-0.9,2.9c-0.3,1-0.6,1.7-0.6,2.2c0,0.7,1.1,0.9,2,0.9h0.4v0.1v1h-0.1c-1.1,0-2.3-0.1-3.4-0.1c-1,0-2,0.1-3,0.1h-0.1
		V169v-1h0.1h0.2c1.1,0,1.9-0.6,2.3-1.8l4.5-13c0.4-1,0.9-2.5,1.1-3.6c0.9-0.3,2-0.9,2.6-1.2c0.1,0,0.2-0.1,0.3-0.1
		c0.1,0,0.2,0,0.3,0.2c0.1,0.2,0.2,0.5,0.3,0.7l5.2,14.8c0.3,1,0.7,2,1,2.9c0.3,0.8,0.8,1,1.7,1.1h0.3v0.1v1L225.9,169z"/>
	<path d="M233.1,166.1c0,1.1,0.8,1.5,1.7,1.6c1.2,0.1,2.4,0.1,3.7-0.1c1.2-0.1,2.2-0.8,2.7-1.5c0.5-0.6,0.7-1.4,0.9-2h0.8
		c-0.3,1.6-0.7,3.2-1,4.8c-2.5,0-5-0.1-7.5-0.1s-5,0.1-7.5,0.1V168h0.4c1,0,2.1-0.1,2.1-1.9v-14.5c0-1.5-1.1-1.6-2.1-1.6h-0.4v-0.8
		c1.5,0,3,0.1,4.5,0.1c1.4,0,2.9-0.1,4.3-0.1v0.8H235c-1.1,0-1.9,0-1.9,1.5L233.1,166.1L233.1,166.1z"/>
	<path d="M241.7,168.7c0.3-1.5,0.7-3,1-4.6h-0.6c-0.2,0.6-0.4,1.4-0.9,2c-0.5,0.7-1.6,1.4-2.8,1.6c-0.7,0.1-1.5,0.1-2.2,0.1
		c-0.5,0-1.1,0-1.6-0.1c-0.9-0.1-1.8-0.5-1.8-1.7v-14.5c0-1.6,1-1.6,2-1.6h0.6v-0.6c-1.4,0-2.8,0.1-4.2,0.1c-1.5,0-2.9-0.1-4.3-0.1
		v0.6h0.3c1,0,2.2,0.2,2.2,1.7v14.5c0,1.8-1.2,2-2.2,2h-0.3v0.6c2.4,0,4.9-0.1,7.3-0.1C236.9,168.6,239.3,168.7,241.7,168.7
		 M241.9,169c-2.5,0-5-0.1-7.5-0.1s-5,0.1-7.5,0.1h-0.1v-0.1v-1h0.1h0.4c1,0,2-0.1,2-1.8v-14.5c0-1.4-1-1.5-2-1.5h-0.5V150v-1h0.1
		c1.5,0,3,0.1,4.5,0.1c1.4,0,2.8-0.1,4.3-0.1h0.1v0.1v1h-0.1H235c-1.1,0-1.8,0-1.8,1.4v14.6c0,1.1,0.7,1.3,1.6,1.5
		c0.5,0,1,0.1,1.6,0.1c0.7,0,1.4,0,2.1-0.1c1.2-0.1,2.1-0.8,2.6-1.5c0.4-0.6,0.7-1.4,0.9-2V164h0.1h1v0.1c-0.3,1.6-0.7,3.2-1,4.8
		L241.9,169L241.9,169z"/>
	<path d="M242.1,151.3h0.4c0.4,0,0.6-0.3,0.6-0.8s-0.3-0.6-0.6-0.6h-0.3v1.4H242.1z M241.1,152.9v-0.1c0.4-0.1,0.4,0,0.4-0.3v-2.2
		c0-0.3,0-0.4-0.4-0.4v-0.2h1.5c0.5,0,1,0.2,1,0.8c0,0.4-0.3,0.8-0.7,0.9l0.5,0.7c0.2,0.3,0.5,0.6,0.7,0.7v0.1h-0.6
		c-0.3,0-0.5-0.6-1.1-1.4h-0.3v1c0,0.2,0.1,0.2,0.4,0.2v0.1L241.1,152.9L241.1,152.9z M242.6,153.7c1.3,0,2.4-1.1,2.4-2.4
		s-1-2.4-2.4-2.4c-1.3,0-2.4,1.1-2.4,2.4S241.2,153.7,242.6,153.7 M242.6,148.3c1.7,0,3,1.3,3,3s-1.3,3-3,3s-3-1.3-3-3
		C239.6,149.6,240.9,148.3,242.6,148.3"/>
</g>
<path class="st2" d="M-574.3-644.4"/>
<path class="st2" d="M-574.3,579.6"/>
<path class="st2" d="M217.7,579.6"/>
<path class="st2" d="M217.7-644.4"/>
</svg>
