<svg version="1.1" id="svg2" xmlns="http://www.w3.org/2000/svg" x="0" y="0" viewBox="0 0 126.9 21.4" xml:space="preserve"><g id="g16"><path id="path22" class="st0" d="M10.3 15.5c-1.2 1.1-2.8 1.6-5.4 1.6h-1V3.9H5c2.5 0 4.1.5 5.4 1.6 1.4 1.2 2.2 3.1 2.2 5-.1 1.9-.9 3.8-2.3 5zM5.7.5H0v20.1h5.7c3 0 5.2-.7 7.2-2.3 2.3-1.9 3.6-4.8 3.6-7.7C16.5 4.6 12.1.5 5.7.5"/><path id="path24" class="st0" d="M18.3 20.5h3.9V.5h-3.9v20z"/><path id="path26" class="st0" d="M31.8 8.2c-2.3-.9-3-1.4-3-2.5 0-1.3 1.2-2.2 2.9-2.2 1.2 0 2.1.5 3.2 1.6l2-2.7C35.2.9 33.2.2 31 .2c-3.6 0-6.3 2.5-6.3 5.8 0 2.8 1.3 4.2 4.9 5.5 1.5.5 2.3.9 2.7 1.1.8.5 1.2 1.2 1.2 2.1 0 1.6-1.3 2.8-3 2.8-1.9 0-3.4-.9-4.3-2.7l-2.5 2.4c1.8 2.6 4 3.8 6.9 3.8 4.1 0 6.9-2.7 6.9-6.6.1-3.2-1.2-4.6-5.7-6.2"/><path id="path28" class="st0" d="M38.8 10.5c0 5.9 4.6 10.5 10.6 10.5 1.7 0 3.1-.3 4.9-1.2v-4.6c-1.6 1.6-3 2.2-4.7 2.2-3.9 0-6.7-2.9-6.7-6.9 0-3.9 2.9-6.9 6.6-6.9 1.9 0 3.3.7 4.9 2.3V1.2C52.6.4 51.2 0 49.5 0c-5.9 0-10.7 4.7-10.7 10.5"/><path id="path30" class="st0" d="M85.4 13.9L80 .5h-4.3L84.3 21h2.1L95 .5h-4.2l-5.4 13.4"/><path id="path32" class="st0" d="M96.8 20.5h11.1v-3.4h-7.2v-5.4h6.9V8.3h-6.9V3.9h7.2V.5H96.8v20"/><path id="path34" class="st0" d="M115.6 9.7h-1.1V3.6h1.2c2.4 0 3.8 1 3.8 3-.1 2-1.4 3.1-3.9 3.1zm7.8-3.3c0-3.8-2.6-5.9-7.1-5.9h-5.8v20.1h3.9v-8.1h.5l5.4 8.1h4.8l-6.3-8.5c3-.6 4.6-2.6 4.6-5.7"/><path id="path36" class="st0" d="M125.2 1.5l-.1-.5h.1c.2 0 .3.1.3.2 0 .2-.1.3-.3.3zm.7-.3c0-.4-.2-.5-.7-.5h-.6v1.8h.4v-.7l.5.7h.5l-.6-.7c.4-.2.5-.3.5-.6"/><path id="path38" class="st0" d="M125.3 2.8c-.7 0-1.2-.6-1.2-1.3 0-.7.5-1.3 1.2-1.3s1.2.6 1.2 1.3c0 .7-.5 1.3-1.2 1.3zm0-2.8c-.9 0-1.5.7-1.5 1.5 0 .9.7 1.5 1.5 1.5s1.5-.7 1.5-1.5c.1-.8-.6-1.5-1.5-1.5"/></g><linearGradient id="SVGID_1_" gradientUnits="userSpaceOnUse" x1="58.734" y1="3.017" x2="73.836" y2="18.119"><stop offset="0" stop-color="#df471f"/><stop offset="1" stop-color="#f59314"/></linearGradient><path d="M55.6 10.6c0-5.9 4.8-10.7 10.7-10.7C72.2-.1 77 4.7 77 10.6c0 5.9-4.8 10.7-10.7 10.7-5.9-.1-10.7-4.8-10.7-10.7" fill="url(#SVGID_1_)"/><radialGradient id="SVGID_2_" cx="67.043" cy="11.515" r="10.679" gradientUnits="userSpaceOnUse"><stop offset=".5" stop-opacity="0"/><stop offset=".929" stop-opacity=".859"/><stop offset="1"/></radialGradient><path d="M55.6 10.6c0-5.9 4.8-10.7 10.7-10.7C72.2-.1 77 4.7 77 10.6c0 5.9-4.8 10.7-10.7 10.7-5.9-.1-10.7-4.8-10.7-10.7" opacity=".3" fill="url(#SVGID_2_)"/></svg>