<?xml version="1.0" encoding="utf-8"?>
<!-- Generator: Adobe Illustrator 24.1.1, SVG Export Plug-In . SVG Version: 6.00 Build 0)  -->
<svg version="1.1"
	 id="svg2" xmlns:cc="http://creativecommons.org/ns#" xmlns:dc="http://purl.org/dc/elements/1.1/" xmlns:inkscape="http://www.inkscape.org/namespaces/inkscape" xmlns:rdf="http://www.w3.org/1999/02/22-rdf-syntax-ns#" xmlns:sodipodi="http://sodipodi.sourceforge.net/DTD/sodipodi-0.dtd" xmlns:svg="http://www.w3.org/2000/svg"
	 xmlns="http://www.w3.org/2000/svg" xmlns:xlink="http://www.w3.org/1999/xlink" x="0px" y="0px" viewBox="0 0 184.7 70.6"
	 style="enable-background:new 0 0 184.7 70.6;" xml:space="preserve">
<style type="text/css">
	.st0{fill:#FBC707;}
	.st1{fill:#38A7E4;}
	.st2{fill:#EF3120;}
	.st3{fill:#231F20;}
</style>
<g>
	
		<sodipodi:namedview  bordercolor="#666666" borderopacity="1" fit-margin-bottom="0" fit-margin-left="0" fit-margin-right="0" fit-margin-top="0" gridtolerance="10" guidetolerance="10" id="namedview90" inkscape:current-layer="g10" inkscape:cx="898.57719" inkscape:cy="220.94961" inkscape:pageopacity="0" inkscape:pageshadow="2" inkscape:window-height="837" inkscape:window-maximized="1" inkscape:window-width="1600" inkscape:window-x="-8" inkscape:window-y="-8" inkscape:zoom="0.29733907" objecttolerance="10" pagecolor="#ffffff" showgrid="false">
		</sodipodi:namedview>
	<path id="path58" inkscape:connector-curvature="0" class="st0" d="M28.8,15.6c2.1-0.7,4.3-1.1,6.6-1.1c10.1,0,18.5,7.2,20.4,16.7
		l14.3-2.9C66.8,12.1,52.5,0,35.4,0c-3.9,0-7.7,0.6-11.2,1.8L28.8,15.6z"/>
	<path id="path62" inkscape:connector-curvature="0" class="st1" d="M11.9,61.9L21.6,51c-4.3-3.8-7-9.4-7-15.6
		c0-6.2,2.7-11.8,7-15.6L11.9,8.9C4.6,15.4,0,24.9,0,35.4S4.6,55.4,11.9,61.9"/>
	<path id="path66" inkscape:connector-curvature="0" class="st2" d="M55.8,39.5C53.9,49,45.5,56.1,35.4,56.1c-2.3,0-4.5-0.4-6.6-1.1
		l-4.6,13.8c3.5,1.2,7.3,1.8,11.2,1.8c17.1,0,31.4-12.1,34.7-28.3L55.8,39.5z"/>
	<path id="path70" inkscape:connector-curvature="0" class="st3" d="M111.1,47.1L111.1,47.1l-0.4-0.3c-1.2,1.9-3,3.4-5.3,4.4
		C101,53.1,97,52.6,94,50.1l-0.3,0.4l0,0l-5,7.4c1.2,0.9,2.6,1.6,4,2.2c5.5,2.3,11.1,2.2,16.6-0.2c4-1.7,7.1-4.4,9.3-7.7L111.1,47.1
		z M95.6,28.8c-4.6,2-7,6.3-6.5,11.4l19.6-8.4C105.3,27.8,100.9,26.5,95.6,28.8 M82.6,51.4c-0.5-0.8-1.1-2-1.5-2.9
		c-2.3-5.2-2.4-10.7-0.5-15.9c2.1-5.7,6.1-10.1,11.3-12.3c6.5-2.8,13.7-2.2,20,1.5c4,2.3,6.8,5.8,8.9,10.8c0.3,0.6,0.5,1.3,0.7,1.9
		L82.6,51.4z"/>
	<path id="path74" inkscape:connector-curvature="0" class="st3" d="M135.2,9.4v41.4l6.4,2.6l-3.7,8.5l-7.1-2.9
		c-1.6-0.7-2.7-1.7-3.5-2.9s-1.4-2.9-1.4-5.1V9.5h9.3V9.4z"/>
	<path id="path78" inkscape:connector-curvature="0" class="st3" d="M151.8,40.2c0-3.5,1.6-6.7,4-8.8l-6.6-7.4
		c-4.5,4-7.3,9.7-7.3,16.2c0,6.4,2.8,12.2,7.3,16.2l6.6-7.4C153.4,46.9,151.8,43.7,151.8,40.2"/>
	<path id="path82" inkscape:connector-curvature="0" class="st3" d="M163.5,51.9c-1.3,0-2.5-0.2-3.7-0.6l-3.2,9.4
		c2.2,0.7,4.5,1.1,6.9,1.1c10.4,0,19.2-7.4,21.2-17.3l-9.7-2C173.9,47.9,169.2,51.9,163.5,51.9"/>
	<path id="path86" inkscape:connector-curvature="0" class="st3" d="M163.6,18.6c-2.4,0-4.7,0.4-6.9,1.1l3.1,9.4
		c1.2-0.4,2.4-0.6,3.7-0.6c5.7,0,10.4,4,11.5,9.4l9.7-2C182.7,26,174,18.6,163.6,18.6"/>
</g>
</svg>
