<?xml version="1.0" encoding="utf-8"?>
<!-- Generator: Adobe Illustrator 24.1.1, SVG Export Plug-In . SVG Version: 6.00 Build 0)  -->
<svg version="1.1" id="Layer_1" xmlns="http://www.w3.org/2000/svg" xmlns:xlink="http://www.w3.org/1999/xlink" x="0px" y="0px"
	 viewBox="0 0 210.5 167.9" style="enable-background:new 0 0 210.5 167.9;" xml:space="preserve">
<style type="text/css">
	.st0{display:none;fill:#EB5D15;}
	.st1{fill:#EB5D15;}
	.st2{fill:#FFFBFF;}
	.st3{fill:#FFFFFF;}
	.st4{fill:#FCCF11;}
</style>
<path class="st0" d="M187.7,179.5l-120.4,30c-16,4-32.4-5.9-36.4-21.9L1,67.2c-4-16,5.9-32.4,21.9-36.4l120.4-30
	c16-4,32.4,5.9,36.4,21.9l30,120.4C213.6,159.2,203.7,175.5,187.7,179.5z"/>
<g>
	<path class="st1" d="M26.1,167.9h178.7c5-6.9,7-15.9,4.8-24.7l-30-120.4c-4-16-20.3-25.9-36.4-21.9l-120.4,30
		c-16,4-25.9,20.3-21.9,36.4L26.1,167.9z"/>
	<g id="Camada_2">
		<polygon class="st2" points="53.5,76.5 53.5,95.2 35.5,95.2 35.5,76.5 22.8,76.5 22.8,127.5 35.5,127.5 35.5,106.2 53.5,106.2 
			53.5,127.5 66.2,127.5 66.2,76.5 		"/>
		<path class="st3" d="M111,89.2c-11.3,0-11.7,6-11.7,6v-4.7h-10v28.3c-6.2,0-6-6.8-6-6.8V90.5H71c0,0,0,8.8,0,21.1
			c0,15.9,17.8,16.9,17.8,16.9v13H101v-12.7c23.3,0,26-9.8,26-19.5C127,99.7,122.3,89.2,111,89.2z M105.3,118.9c-2.5,0-4.3,0-4.3,0
			v-15.2c0,0,0.5-4.8,6.3-4.8s7.2,7.3,7.2,11.2S113.3,118.9,105.3,118.9z"/>
		<path class="st4" d="M83.3,80.6c0,3.6-2.9,6.6-6.6,6.6c-3.6,0-6.6-2.9-6.6-6.6c0-3.6,2.9-6.6,6.6-6.6C80.4,74,83.3,77,83.3,80.6z"
			/>
		<path class="st2" d="M146.8,89.2c-19.2,0-18,21.7-18,21.3s-1.2,18.2,18.8,18.2c7.5,0,14.5-2.8,14.5-2.8l-1.2-8.3
			c0,0-19.7,5.3-21.3-5h23.9C163.5,112.5,166,89.2,146.8,89.2z M153.5,104.4h-14c0,0-0.5-7.8,7-7.8S153.5,104.4,153.5,104.4z"/>
		<path class="st2" d="M177.6,90.5h-11.1v37h13v-21.3c0,0-0.7-7.7,10-5.5V89.2c0,0-8.5-2-12,6L177.6,90.5z"/>
	</g>
</g>
</svg>
