<?xml version="1.0" encoding="utf-8"?>
<!-- Generator: Adobe Illustrator 24.1.1, SVG Export Plug-In . SVG Version: 6.00 Build 0)  -->
<svg version="1.1" id="Layer_1" xmlns="http://www.w3.org/2000/svg" xmlns:xlink="http://www.w3.org/1999/xlink" x="0px" y="0px"
	 viewBox="0 0 116.4 72" style="enable-background:new 0 0 116.4 72;" xml:space="preserve">
<style type="text/css">
	.st0{fill:#7673C0;}
	.st1{fill:#EB001B;}
	.st2{fill:#00A1DF;}
</style>
<g id="_Group_">
	<rect x="42.4" y="7.7" class="st0" width="31.5" height="56.6"/>
	<path id="_Path_" class="st1" d="M44.4,36c0-11,5.1-21.5,13.8-28.3C42.6-4.6,19.9-1.9,7.7,13.8c-12.3,15.6-9.6,38.3,6.1,50.5
		c13.1,10.3,31.4,10.3,44.5,0C49.5,57.5,44.4,47.1,44.4,36z"/>
	<path class="st2" d="M113,58.3v-1.1h0.5V57h-1.2v0.2h0.5v1.2L113,58.3z M115.3,58.3v-1.4h-0.4l-0.4,1l-0.4-1h-0.4v1.4h0.3v-1
		l0.4,0.9h0.3l0.4-0.9v1.1L115.3,58.3z"/>
	<path class="st2" d="M116.4,36c0,19.9-16.1,36-36,36c-8.1,0-15.9-2.7-22.2-7.7c15.6-12.2,18.3-34.9,6.1-50.5
		c-1.8-2.3-3.8-4.3-6.1-6.1c15.6-12.3,38.3-9.6,50.6,6.1C113.7,20.1,116.4,28,116.4,36L116.4,36z"/>
</g>
</svg>
