<svg xmlns="http://www.w3.org/2000/svg" viewBox="0 0 650 405.632" version="1.1" id="svg895"><defs id="defs879"><style type="text/css" id="style877">.e{fill:#f79e1b}</style></defs><path id="rect887" display="inline" fill="#ff5f00" stroke-width="5.494" d="M229.833 47.298h190.416v311.005H229.833z"/><path d="M249.446 202.828a197.448 197.448 0 0175.54-155.475 197.777 197.777 0 100 311.004 197.448 197.448 0 01-75.54-155.53z" id="path889" fill="#eb001b" stroke-width="5.494"/><path class="e" d="M626.101 325.394v-6.372h2.747v-1.319h-6.537v1.319h2.582v6.373zm12.691 0v-7.69h-1.978l-2.307 5.493-2.308-5.494h-1.977v7.691h1.428v-5.823l2.143 5h1.483l2.143-5v5.823z" id="path891" fill="#f79e1b" stroke-width="5.494"/><path class="e" d="M645 202.828a197.777 197.777 0 01-320.015 155.474 197.777 197.777 0 000-311.004A197.777 197.777 0 01645 202.773z" id="path893" fill="#f79e1b" stroke-width="5.494"/></svg>